<mxfile host="app.diagrams.net" modified="2023-06-12T07:20:23.720Z" agent="Mozilla/5.0 (Macintosh; Intel Mac OS X 10_15_7) AppleWebKit/537.36 (KHTML, like Gecko) Chrome/114.0.0.0 Safari/537.36" etag="kIeyg9k5XS9C1QXKwJK_" version="21.1.9" type="github" pages="2">
  <diagram name="HLD for Efficient Filtering" id="fewRyJouiZ-n5GqvohV1">
    <mxGraphModel dx="2284" dy="715" grid="1" gridSize="10" guides="1" tooltips="1" connect="1" arrows="1" fold="1" page="1" pageScale="1" pageWidth="850" pageHeight="1100" math="0" shadow="0">
      <root>
        <mxCell id="0" />
        <mxCell id="1" parent="0" />
        <mxCell id="J7_zZ_q4P6VXWAkWHej_-12" style="edgeStyle=orthogonalEdgeStyle;rounded=0;orthogonalLoop=1;jettySize=auto;html=1;exitX=1;exitY=0.25;exitDx=0;exitDy=0;entryX=0;entryY=0.25;entryDx=0;entryDy=0;" edge="1" parent="1" source="J7_zZ_q4P6VXWAkWHej_-1" target="J7_zZ_q4P6VXWAkWHej_-2">
          <mxGeometry relative="1" as="geometry" />
        </mxCell>
        <mxCell id="J7_zZ_q4P6VXWAkWHej_-33" value="Query" style="edgeLabel;html=1;align=center;verticalAlign=middle;resizable=0;points=[];" vertex="1" connectable="0" parent="J7_zZ_q4P6VXWAkWHej_-12">
          <mxGeometry x="-0.2211" y="1" relative="1" as="geometry">
            <mxPoint as="offset" />
          </mxGeometry>
        </mxCell>
        <mxCell id="J7_zZ_q4P6VXWAkWHej_-28" style="edgeStyle=orthogonalEdgeStyle;rounded=0;orthogonalLoop=1;jettySize=auto;html=1;exitX=0;exitY=0.5;exitDx=0;exitDy=0;entryX=0.5;entryY=0.5;entryDx=0;entryDy=0;entryPerimeter=0;" edge="1" parent="1" source="J7_zZ_q4P6VXWAkWHej_-1" target="J7_zZ_q4P6VXWAkWHej_-9">
          <mxGeometry relative="1" as="geometry" />
        </mxCell>
        <mxCell id="J7_zZ_q4P6VXWAkWHej_-37" value="Search Response" style="edgeLabel;html=1;align=center;verticalAlign=middle;resizable=0;points=[];" vertex="1" connectable="0" parent="J7_zZ_q4P6VXWAkWHej_-28">
          <mxGeometry x="-0.0817" y="2" relative="1" as="geometry">
            <mxPoint x="1" as="offset" />
          </mxGeometry>
        </mxCell>
        <mxCell id="J7_zZ_q4P6VXWAkWHej_-1" value="Coordinator Node" style="rounded=0;whiteSpace=wrap;html=1;verticalAlign=top;fillColor=#f5f5f5;gradientColor=#b3b3b3;strokeColor=#666666;" vertex="1" parent="1">
          <mxGeometry x="-64" y="155.5" width="170" height="273" as="geometry" />
        </mxCell>
        <mxCell id="J7_zZ_q4P6VXWAkWHej_-13" style="edgeStyle=orthogonalEdgeStyle;rounded=0;orthogonalLoop=1;jettySize=auto;html=1;exitX=0;exitY=0.75;exitDx=0;exitDy=0;entryX=1;entryY=0.75;entryDx=0;entryDy=0;" edge="1" parent="1" source="J7_zZ_q4P6VXWAkWHej_-2" target="J7_zZ_q4P6VXWAkWHej_-1">
          <mxGeometry relative="1" as="geometry" />
        </mxCell>
        <mxCell id="J7_zZ_q4P6VXWAkWHej_-34" value="Returned&lt;br&gt;DocIds" style="edgeLabel;html=1;align=center;verticalAlign=middle;resizable=0;points=[];" vertex="1" connectable="0" parent="J7_zZ_q4P6VXWAkWHej_-13">
          <mxGeometry x="0.36" y="1" relative="1" as="geometry">
            <mxPoint x="10" y="7" as="offset" />
          </mxGeometry>
        </mxCell>
        <mxCell id="J7_zZ_q4P6VXWAkWHej_-2" value="Data Node" style="rounded=0;whiteSpace=wrap;html=1;verticalAlign=top;fillColor=default;gradientColor=#b3b3b3;strokeColor=#666666;" vertex="1" parent="1">
          <mxGeometry x="190" y="112" width="810" height="360" as="geometry" />
        </mxCell>
        <mxCell id="J7_zZ_q4P6VXWAkWHej_-24" style="edgeStyle=orthogonalEdgeStyle;rounded=0;orthogonalLoop=1;jettySize=auto;html=1;exitX=0.5;exitY=1;exitDx=0;exitDy=0;entryX=1;entryY=0.75;entryDx=0;entryDy=0;" edge="1" parent="1" source="J7_zZ_q4P6VXWAkWHej_-3" target="J7_zZ_q4P6VXWAkWHej_-6">
          <mxGeometry relative="1" as="geometry" />
        </mxCell>
        <mxCell id="J7_zZ_q4P6VXWAkWHej_-45" value="TopK DocIds" style="edgeLabel;html=1;align=center;verticalAlign=middle;resizable=0;points=[];" vertex="1" connectable="0" parent="J7_zZ_q4P6VXWAkWHej_-24">
          <mxGeometry x="0.055" y="-3" relative="1" as="geometry">
            <mxPoint as="offset" />
          </mxGeometry>
        </mxCell>
        <mxCell id="J7_zZ_q4P6VXWAkWHej_-3" value="Faiss Library" style="rounded=0;whiteSpace=wrap;html=1;fillColor=#f8cecc;gradientColor=#ea6b66;strokeColor=#b85450;" vertex="1" parent="1">
          <mxGeometry x="860" y="260" width="120" height="60" as="geometry" />
        </mxCell>
        <mxCell id="J7_zZ_q4P6VXWAkWHej_-18" style="edgeStyle=orthogonalEdgeStyle;rounded=0;orthogonalLoop=1;jettySize=auto;html=1;exitX=0.75;exitY=0;exitDx=0;exitDy=0;entryX=0.75;entryY=1;entryDx=0;entryDy=0;" edge="1" parent="1" source="J7_zZ_q4P6VXWAkWHej_-4" target="J7_zZ_q4P6VXWAkWHej_-7">
          <mxGeometry relative="1" as="geometry" />
        </mxCell>
        <mxCell id="J7_zZ_q4P6VXWAkWHej_-49" value="DocId&lt;br&gt;Iterator" style="edgeLabel;html=1;align=center;verticalAlign=middle;resizable=0;points=[];" vertex="1" connectable="0" parent="J7_zZ_q4P6VXWAkWHej_-18">
          <mxGeometry x="0.3247" y="-1" relative="1" as="geometry">
            <mxPoint y="14" as="offset" />
          </mxGeometry>
        </mxCell>
        <mxCell id="J7_zZ_q4P6VXWAkWHej_-4" value="Build and Run Lucene Query" style="rounded=0;whiteSpace=wrap;html=1;fillColor=#d5e8d4;gradientColor=#97d077;strokeColor=#82b366;" vertex="1" parent="1">
          <mxGeometry x="397" y="377" width="120" height="60" as="geometry" />
        </mxCell>
        <mxCell id="J7_zZ_q4P6VXWAkWHej_-23" style="edgeStyle=orthogonalEdgeStyle;rounded=0;orthogonalLoop=1;jettySize=auto;html=1;exitX=1;exitY=0.25;exitDx=0;exitDy=0;entryX=0.5;entryY=0;entryDx=0;entryDy=0;" edge="1" parent="1" source="J7_zZ_q4P6VXWAkWHej_-6" target="J7_zZ_q4P6VXWAkWHej_-3">
          <mxGeometry relative="1" as="geometry">
            <Array as="points">
              <mxPoint x="920" y="218" />
            </Array>
          </mxGeometry>
        </mxCell>
        <mxCell id="J7_zZ_q4P6VXWAkWHej_-44" value="IndexReader ref with&lt;br&gt;SearchParams containing&lt;br&gt;FilterIds" style="edgeLabel;html=1;align=center;verticalAlign=middle;resizable=0;points=[];" vertex="1" connectable="0" parent="J7_zZ_q4P6VXWAkWHej_-23">
          <mxGeometry x="0.0879" y="1" relative="1" as="geometry">
            <mxPoint x="1" as="offset" />
          </mxGeometry>
        </mxCell>
        <mxCell id="J7_zZ_q4P6VXWAkWHej_-30" style="edgeStyle=orthogonalEdgeStyle;rounded=0;orthogonalLoop=1;jettySize=auto;html=1;exitX=0;exitY=0.5;exitDx=0;exitDy=0;entryX=1;entryY=0.25;entryDx=0;entryDy=0;" edge="1" parent="1" source="J7_zZ_q4P6VXWAkWHej_-6" target="J7_zZ_q4P6VXWAkWHej_-7">
          <mxGeometry relative="1" as="geometry">
            <Array as="points">
              <mxPoint x="640" y="292" />
              <mxPoint x="640" y="240" />
            </Array>
          </mxGeometry>
        </mxCell>
        <mxCell id="J7_zZ_q4P6VXWAkWHej_-6" value="JNI Layer" style="rounded=0;whiteSpace=wrap;html=1;fillColor=#ffcd28;gradientColor=#ffa500;strokeColor=#d79b00;" vertex="1" parent="1">
          <mxGeometry x="720" y="147" width="90" height="290" as="geometry" />
        </mxCell>
        <mxCell id="J7_zZ_q4P6VXWAkWHej_-17" style="edgeStyle=orthogonalEdgeStyle;rounded=0;orthogonalLoop=1;jettySize=auto;html=1;exitX=0.25;exitY=1;exitDx=0;exitDy=0;entryX=0.25;entryY=0;entryDx=0;entryDy=0;" edge="1" parent="1" source="J7_zZ_q4P6VXWAkWHej_-7" target="J7_zZ_q4P6VXWAkWHej_-4">
          <mxGeometry relative="1" as="geometry" />
        </mxCell>
        <mxCell id="J7_zZ_q4P6VXWAkWHej_-48" value="Filter Query" style="edgeLabel;html=1;align=center;verticalAlign=middle;resizable=0;points=[];" vertex="1" connectable="0" parent="J7_zZ_q4P6VXWAkWHej_-17">
          <mxGeometry x="0.013" y="-2" relative="1" as="geometry">
            <mxPoint as="offset" />
          </mxGeometry>
        </mxCell>
        <mxCell id="J7_zZ_q4P6VXWAkWHej_-20" style="edgeStyle=orthogonalEdgeStyle;rounded=0;orthogonalLoop=1;jettySize=auto;html=1;exitX=1;exitY=0.75;exitDx=0;exitDy=0;entryX=0;entryY=0.75;entryDx=0;entryDy=0;" edge="1" parent="1" source="J7_zZ_q4P6VXWAkWHej_-7" target="J7_zZ_q4P6VXWAkWHej_-8">
          <mxGeometry relative="1" as="geometry" />
        </mxCell>
        <mxCell id="J7_zZ_q4P6VXWAkWHej_-42" value="Filtered &lt;br&gt;DocIds" style="edgeLabel;html=1;align=center;verticalAlign=middle;resizable=0;points=[];" vertex="1" connectable="0" parent="J7_zZ_q4P6VXWAkWHej_-20">
          <mxGeometry x="-0.1111" y="-1" relative="1" as="geometry">
            <mxPoint as="offset" />
          </mxGeometry>
        </mxCell>
        <mxCell id="J7_zZ_q4P6VXWAkWHej_-21" style="edgeStyle=orthogonalEdgeStyle;rounded=0;orthogonalLoop=1;jettySize=auto;html=1;exitX=0.75;exitY=0;exitDx=0;exitDy=0;entryX=0;entryY=0.25;entryDx=0;entryDy=0;" edge="1" parent="1" source="J7_zZ_q4P6VXWAkWHej_-7" target="J7_zZ_q4P6VXWAkWHej_-6">
          <mxGeometry relative="1" as="geometry" />
        </mxCell>
        <mxCell id="J7_zZ_q4P6VXWAkWHej_-43" value="FilterDocIds with&lt;br&gt;Reference to Faiss Index" style="edgeLabel;html=1;align=center;verticalAlign=middle;resizable=0;points=[];" vertex="1" connectable="0" parent="J7_zZ_q4P6VXWAkWHej_-21">
          <mxGeometry x="-0.0173" y="1" relative="1" as="geometry">
            <mxPoint as="offset" />
          </mxGeometry>
        </mxCell>
        <mxCell id="J7_zZ_q4P6VXWAkWHej_-46" style="edgeStyle=orthogonalEdgeStyle;rounded=0;orthogonalLoop=1;jettySize=auto;html=1;exitX=0;exitY=0.75;exitDx=0;exitDy=0;" edge="1" parent="1" source="J7_zZ_q4P6VXWAkWHej_-7" target="J7_zZ_q4P6VXWAkWHej_-38">
          <mxGeometry relative="1" as="geometry" />
        </mxCell>
        <mxCell id="J7_zZ_q4P6VXWAkWHej_-47" value="Return Scorer &lt;br&gt;for Top K &lt;br&gt;documents&amp;nbsp;" style="edgeLabel;html=1;align=center;verticalAlign=middle;resizable=0;points=[];" vertex="1" connectable="0" parent="J7_zZ_q4P6VXWAkWHej_-46">
          <mxGeometry x="-0.0515" y="1" relative="1" as="geometry">
            <mxPoint as="offset" />
          </mxGeometry>
        </mxCell>
        <mxCell id="J7_zZ_q4P6VXWAkWHej_-7" value="KNNWeight&lt;br&gt;(if exact search is required do Exact Search, else do ANN)" style="rounded=0;whiteSpace=wrap;html=1;fillColor=#ffcd28;gradientColor=#ffa500;strokeColor=#d79b00;" vertex="1" parent="1">
          <mxGeometry x="390" y="220" width="130" height="80" as="geometry" />
        </mxCell>
        <mxCell id="J7_zZ_q4P6VXWAkWHej_-29" style="edgeStyle=orthogonalEdgeStyle;rounded=0;orthogonalLoop=1;jettySize=auto;html=1;exitX=0.5;exitY=0;exitDx=0;exitDy=0;entryX=1;entryY=0.25;entryDx=0;entryDy=0;" edge="1" parent="1" source="J7_zZ_q4P6VXWAkWHej_-8" target="J7_zZ_q4P6VXWAkWHej_-7">
          <mxGeometry relative="1" as="geometry" />
        </mxCell>
        <mxCell id="J7_zZ_q4P6VXWAkWHej_-41" value="TopK&lt;br&gt;docs Ids &lt;br&gt;with Scores" style="edgeLabel;html=1;align=center;verticalAlign=middle;resizable=0;points=[];" vertex="1" connectable="0" parent="J7_zZ_q4P6VXWAkWHej_-29">
          <mxGeometry x="-0.3095" relative="1" as="geometry">
            <mxPoint as="offset" />
          </mxGeometry>
        </mxCell>
        <mxCell id="J7_zZ_q4P6VXWAkWHej_-8" value="Exact Search on Filter Ids" style="rounded=0;whiteSpace=wrap;html=1;fillColor=#d5e8d4;gradientColor=#97d077;strokeColor=#82b366;" vertex="1" parent="1">
          <mxGeometry x="580" y="377" width="120" height="60" as="geometry" />
        </mxCell>
        <mxCell id="J7_zZ_q4P6VXWAkWHej_-35" style="edgeStyle=orthogonalEdgeStyle;rounded=0;orthogonalLoop=1;jettySize=auto;html=1;exitX=0.5;exitY=0;exitDx=0;exitDy=0;exitPerimeter=0;entryX=0;entryY=0.25;entryDx=0;entryDy=0;" edge="1" parent="1" source="J7_zZ_q4P6VXWAkWHej_-9" target="J7_zZ_q4P6VXWAkWHej_-1">
          <mxGeometry relative="1" as="geometry" />
        </mxCell>
        <mxCell id="J7_zZ_q4P6VXWAkWHej_-36" value="search with K-NN&amp;nbsp;&lt;br&gt;Query and Filters" style="edgeLabel;html=1;align=center;verticalAlign=middle;resizable=0;points=[];" vertex="1" connectable="0" parent="J7_zZ_q4P6VXWAkWHej_-35">
          <mxGeometry x="-0.2729" relative="1" as="geometry">
            <mxPoint as="offset" />
          </mxGeometry>
        </mxCell>
        <mxCell id="J7_zZ_q4P6VXWAkWHej_-9" value="Customer" style="shape=umlActor;verticalLabelPosition=bottom;verticalAlign=top;html=1;outlineConnect=0;" vertex="1" parent="1">
          <mxGeometry x="-230" y="262" width="30" height="60" as="geometry" />
        </mxCell>
        <mxCell id="J7_zZ_q4P6VXWAkWHej_-31" style="edgeStyle=orthogonalEdgeStyle;rounded=0;orthogonalLoop=1;jettySize=auto;html=1;exitX=0.5;exitY=1;exitDx=0;exitDy=0;entryX=0.5;entryY=0;entryDx=0;entryDy=0;" edge="1" parent="1" source="J7_zZ_q4P6VXWAkWHej_-25" target="J7_zZ_q4P6VXWAkWHej_-26">
          <mxGeometry relative="1" as="geometry" />
        </mxCell>
        <mxCell id="J7_zZ_q4P6VXWAkWHej_-32" value="doc Ids" style="edgeLabel;html=1;align=center;verticalAlign=middle;resizable=0;points=[];" vertex="1" connectable="0" parent="J7_zZ_q4P6VXWAkWHej_-31">
          <mxGeometry x="-0.1628" relative="1" as="geometry">
            <mxPoint as="offset" />
          </mxGeometry>
        </mxCell>
        <mxCell id="J7_zZ_q4P6VXWAkWHej_-25" value="Query Phase" style="rounded=0;whiteSpace=wrap;html=1;verticalAlign=top;fillColor=#dae8fc;gradientColor=#7ea6e0;strokeColor=#6c8ebf;" vertex="1" parent="1">
          <mxGeometry x="-54" y="195.5" width="150" height="90" as="geometry" />
        </mxCell>
        <mxCell id="J7_zZ_q4P6VXWAkWHej_-26" value="Fetch Phase" style="rounded=0;whiteSpace=wrap;html=1;verticalAlign=middle;fillColor=#dae8fc;gradientColor=#7ea6e0;strokeColor=#6c8ebf;" vertex="1" parent="1">
          <mxGeometry x="-54" y="328.5" width="150" height="80" as="geometry" />
        </mxCell>
        <mxCell id="J7_zZ_q4P6VXWAkWHej_-27" value="KNNQuery Builder" style="rounded=0;whiteSpace=wrap;html=1;fillColor=#ffcd28;gradientColor=#ffa500;strokeColor=#d79b00;" vertex="1" parent="1">
          <mxGeometry x="-29" y="225.5" width="100" height="40" as="geometry" />
        </mxCell>
        <mxCell id="J7_zZ_q4P6VXWAkWHej_-39" style="edgeStyle=orthogonalEdgeStyle;rounded=0;orthogonalLoop=1;jettySize=auto;html=1;exitX=1;exitY=0.25;exitDx=0;exitDy=0;entryX=0;entryY=0.25;entryDx=0;entryDy=0;" edge="1" parent="1" source="J7_zZ_q4P6VXWAkWHej_-38" target="J7_zZ_q4P6VXWAkWHej_-7">
          <mxGeometry relative="1" as="geometry" />
        </mxCell>
        <mxCell id="J7_zZ_q4P6VXWAkWHej_-40" value="For Every&lt;br&gt;segment&lt;br&gt;in Shard" style="edgeLabel;html=1;align=center;verticalAlign=middle;resizable=0;points=[];labelBackgroundColor=default;" vertex="1" connectable="0" parent="J7_zZ_q4P6VXWAkWHej_-39">
          <mxGeometry x="-0.023" y="1" relative="1" as="geometry">
            <mxPoint x="1" as="offset" />
          </mxGeometry>
        </mxCell>
        <mxCell id="J7_zZ_q4P6VXWAkWHej_-38" value="Search Service, running IndexSearch and Collecting docs via Multiple Docs Collector" style="rounded=0;whiteSpace=wrap;html=1;fillColor=#dae8fc;gradientColor=#7ea6e0;strokeColor=#6c8ebf;" vertex="1" parent="1">
          <mxGeometry x="210" y="147" width="80" height="290" as="geometry" />
        </mxCell>
        <mxCell id="J7_zZ_q4P6VXWAkWHej_-50" value="Legends" style="rounded=0;whiteSpace=wrap;html=1;verticalAlign=top;fillColor=#f5f5f5;gradientColor=#b3b3b3;strokeColor=#666666;" vertex="1" parent="1">
          <mxGeometry x="390" y="530" width="254" height="150" as="geometry" />
        </mxCell>
        <mxCell id="J7_zZ_q4P6VXWAkWHej_-51" value="" style="rounded=0;whiteSpace=wrap;html=1;fillColor=#dae8fc;gradientColor=#7ea6e0;strokeColor=#6c8ebf;" vertex="1" parent="1">
          <mxGeometry x="404" y="560" width="30" height="20" as="geometry" />
        </mxCell>
        <mxCell id="J7_zZ_q4P6VXWAkWHej_-52" value="No Changes&amp;nbsp;" style="text;html=1;strokeColor=none;fillColor=none;align=left;verticalAlign=middle;whiteSpace=wrap;rounded=0;" vertex="1" parent="1">
          <mxGeometry x="454" y="555" width="180" height="30" as="geometry" />
        </mxCell>
        <mxCell id="J7_zZ_q4P6VXWAkWHej_-53" value="" style="rounded=0;whiteSpace=wrap;html=1;fillColor=#ffcd28;gradientColor=#ffa500;strokeColor=#d79b00;" vertex="1" parent="1">
          <mxGeometry x="404" y="590" width="30" height="20" as="geometry" />
        </mxCell>
        <mxCell id="J7_zZ_q4P6VXWAkWHej_-55" value="" style="rounded=0;whiteSpace=wrap;html=1;fillColor=#d5e8d4;gradientColor=#97d077;strokeColor=#82b366;" vertex="1" parent="1">
          <mxGeometry x="404" y="620" width="30" height="20" as="geometry" />
        </mxCell>
        <mxCell id="J7_zZ_q4P6VXWAkWHej_-56" value="New Components Added" style="text;html=1;strokeColor=none;fillColor=none;align=left;verticalAlign=middle;whiteSpace=wrap;rounded=0;" vertex="1" parent="1">
          <mxGeometry x="454" y="615" width="180" height="30" as="geometry" />
        </mxCell>
        <mxCell id="J7_zZ_q4P6VXWAkWHej_-57" value="" style="rounded=0;whiteSpace=wrap;html=1;fillColor=#f8cecc;gradientColor=#ea6b66;strokeColor=#b85450;" vertex="1" parent="1">
          <mxGeometry x="404" y="650" width="30" height="20" as="geometry" />
        </mxCell>
        <mxCell id="J7_zZ_q4P6VXWAkWHej_-58" value="External Components" style="text;html=1;strokeColor=none;fillColor=none;align=left;verticalAlign=middle;whiteSpace=wrap;rounded=0;" vertex="1" parent="1">
          <mxGeometry x="454" y="645" width="180" height="30" as="geometry" />
        </mxCell>
        <mxCell id="J7_zZ_q4P6VXWAkWHej_-61" value="Changes in Older Components" style="text;html=1;strokeColor=none;fillColor=none;align=left;verticalAlign=middle;whiteSpace=wrap;rounded=0;" vertex="1" parent="1">
          <mxGeometry x="454" y="585" width="180" height="30" as="geometry" />
        </mxCell>
      </root>
    </mxGraphModel>
  </diagram>
  <diagram id="v1FJ2opsqAbNe5-AVXR2" name="Architecture HLD">
    <mxGraphModel dx="1434" dy="715" grid="1" gridSize="10" guides="1" tooltips="1" connect="1" arrows="1" fold="1" page="1" pageScale="1" pageWidth="850" pageHeight="1100" math="0" shadow="0">
      <root>
        <mxCell id="0" />
        <mxCell id="1" parent="0" />
        <mxCell id="RzpBTZFtxhuImNjHKxhw-1" value="OpenSearch Index" style="rounded=0;whiteSpace=wrap;html=1;verticalAlign=top;fillColor=#f5f5f5;gradientColor=#b3b3b3;strokeColor=#666666;" vertex="1" parent="1">
          <mxGeometry x="200" y="100" width="430" height="120" as="geometry" />
        </mxCell>
        <mxCell id="RzpBTZFtxhuImNjHKxhw-2" value="Lucene Index" style="rounded=0;whiteSpace=wrap;html=1;verticalAlign=top;fillColor=#f5f5f5;gradientColor=#b3b3b3;strokeColor=#666666;" vertex="1" parent="1">
          <mxGeometry x="200" y="240" width="430" height="150" as="geometry" />
        </mxCell>
        <mxCell id="RzpBTZFtxhuImNjHKxhw-3" value="Lucene Segment" style="rounded=0;whiteSpace=wrap;html=1;verticalAlign=top;fillColor=#f5f5f5;gradientColor=#b3b3b3;strokeColor=#666666;" vertex="1" parent="1">
          <mxGeometry x="200" y="430" width="430" height="180" as="geometry" />
        </mxCell>
        <mxCell id="RzpBTZFtxhuImNjHKxhw-4" value="OpenSearch Shard == Lucene Index" style="rounded=0;whiteSpace=wrap;html=1;fillColor=#d5e8d4;gradientColor=#97d077;strokeColor=#82b366;" vertex="1" parent="1">
          <mxGeometry x="210" y="130" width="200" height="60" as="geometry" />
        </mxCell>
        <mxCell id="RzpBTZFtxhuImNjHKxhw-6" value="OpenSearch Shard == Lucene Index" style="rounded=0;whiteSpace=wrap;html=1;fillColor=#d5e8d4;gradientColor=#97d077;strokeColor=#82b366;" vertex="1" parent="1">
          <mxGeometry x="422" y="130" width="200" height="60" as="geometry" />
        </mxCell>
        <mxCell id="RzpBTZFtxhuImNjHKxhw-7" value="Lucene Segments" style="rounded=0;whiteSpace=wrap;html=1;fillColor=#d5e8d4;gradientColor=#97d077;strokeColor=#82b366;" vertex="1" parent="1">
          <mxGeometry x="315" y="270" width="200" height="30" as="geometry" />
        </mxCell>
        <mxCell id="RzpBTZFtxhuImNjHKxhw-9" value="Lucene Segments" style="rounded=0;whiteSpace=wrap;html=1;fillColor=#d5e8d4;gradientColor=#97d077;strokeColor=#82b366;" vertex="1" parent="1">
          <mxGeometry x="315" y="310" width="200" height="30" as="geometry" />
        </mxCell>
        <mxCell id="RzpBTZFtxhuImNjHKxhw-10" value="Lucene Segments" style="rounded=0;whiteSpace=wrap;html=1;fillColor=#d5e8d4;gradientColor=#97d077;strokeColor=#82b366;" vertex="1" parent="1">
          <mxGeometry x="315" y="350" width="200" height="30" as="geometry" />
        </mxCell>
        <mxCell id="RzpBTZFtxhuImNjHKxhw-12" value=".frq" style="shape=note;whiteSpace=wrap;html=1;backgroundOutline=1;darkOpacity=0.05;fillColor=#d5e8d4;gradientColor=#97d077;strokeColor=#82b366;" vertex="1" parent="1">
          <mxGeometry x="340" y="470" width="65" height="80" as="geometry" />
        </mxCell>
        <mxCell id="RzpBTZFtxhuImNjHKxhw-13" value=".hnsw file" style="shape=note;whiteSpace=wrap;html=1;backgroundOutline=1;darkOpacity=0.05;fillColor=#ffcd28;gradientColor=#ffa500;strokeColor=#d79b00;" vertex="1" parent="1">
          <mxGeometry x="440" y="470" width="65" height="80" as="geometry" />
        </mxCell>
        <mxCell id="RzpBTZFtxhuImNjHKxhw-14" value="...and many more filed" style="shape=note;whiteSpace=wrap;html=1;backgroundOutline=1;darkOpacity=0.05;fillColor=#d5e8d4;gradientColor=#97d077;strokeColor=#82b366;" vertex="1" parent="1">
          <mxGeometry x="540" y="470" width="65" height="80" as="geometry" />
        </mxCell>
        <mxCell id="RzpBTZFtxhuImNjHKxhw-15" value=".fdt" style="shape=note;whiteSpace=wrap;html=1;backgroundOutline=1;darkOpacity=0.05;fillColor=#d5e8d4;gradientColor=#97d077;strokeColor=#82b366;" vertex="1" parent="1">
          <mxGeometry x="240" y="470" width="65" height="80" as="geometry" />
        </mxCell>
        <mxCell id="qH_x78u17u1Xfr5f-L72-1" value="Legends" style="rounded=0;whiteSpace=wrap;html=1;verticalAlign=top;fillColor=#f5f5f5;gradientColor=#b3b3b3;strokeColor=#666666;" vertex="1" parent="1">
          <mxGeometry x="680" y="240" width="254" height="100" as="geometry" />
        </mxCell>
        <mxCell id="qH_x78u17u1Xfr5f-L72-2" value="" style="rounded=0;whiteSpace=wrap;html=1;fillColor=#d5e8d4;gradientColor=#97d077;strokeColor=#82b366;" vertex="1" parent="1">
          <mxGeometry x="694" y="270" width="30" height="20" as="geometry" />
        </mxCell>
        <mxCell id="qH_x78u17u1Xfr5f-L72-3" value="No Changes&amp;nbsp;" style="text;html=1;strokeColor=none;fillColor=none;align=left;verticalAlign=middle;whiteSpace=wrap;rounded=0;" vertex="1" parent="1">
          <mxGeometry x="744" y="265" width="180" height="30" as="geometry" />
        </mxCell>
        <mxCell id="qH_x78u17u1Xfr5f-L72-4" value="" style="rounded=0;whiteSpace=wrap;html=1;fillColor=#ffcd28;gradientColor=#ffa500;strokeColor=#d79b00;" vertex="1" parent="1">
          <mxGeometry x="694" y="300" width="30" height="20" as="geometry" />
        </mxCell>
        <mxCell id="qH_x78u17u1Xfr5f-L72-9" value="K-NN HNSW Algo specific file" style="text;html=1;strokeColor=none;fillColor=none;align=left;verticalAlign=middle;whiteSpace=wrap;rounded=0;" vertex="1" parent="1">
          <mxGeometry x="744" y="295" width="180" height="30" as="geometry" />
        </mxCell>
      </root>
    </mxGraphModel>
  </diagram>
</mxfile>
